HIERARCHY
ROOT Hips
{
	OFFSET 0.00 0.00 0.00
	CHANNELS 6 Xposition Yposition Zposition Xrotation Yrotation Zrotation
	JOINT Spine
	{
		OFFSET 0.00000 7.06766 0.00000
		CHANNELS 3 Xrotation Yrotation Zrotation
		JOINT Head
		{
			OFFSET 0.00000 15.03989 0.00000
			CHANNELS 3 Xrotation Yrotation Zrotation
			End Site
			{
				OFFSET 0.00000 4.52755 0.00000
			}
		}
		JOINT LeftShoulder
		{
			OFFSET 0.00000 10.53037 0.00000
			CHANNELS 3 Xrotation Yrotation Zrotation
			JOINT LeftArm
			{
				OFFSET 7.02886 0.00000 0.00000
				CHANNELS 3 Xrotation Yrotation Zrotation
				JOINT LeftForeArm
				{
					OFFSET 10.79770 0.00000 0.00000
					CHANNELS 3 Yrotation Zrotation Xrotation
					JOINT LeftHand
					{
						OFFSET 7.90744 0.00000 0.00000
						CHANNELS 3 Xrotation Yrotation Zrotation
						JOINT LeftHandThumb1
						{
							OFFSET 0.00000 0.00000 0.00000
							CHANNELS 3 Xrotation Zrotation Yrotation
							End Site
							{
								OFFSET 0.00000 0.00000 3.93700
							}
						}
						End Site
						{
							OFFSET 3.93700 0.00000 0.00000
						}
					}
				}
			}
		}
		JOINT RightShoulder
		{
			OFFSET 0.00000 10.53037 0.00000
			CHANNELS 3 Xrotation Yrotation Zrotation
			JOINT RightArm
			{
				OFFSET -7.02886 0.00000 0.00000
				CHANNELS 3 Xrotation Yrotation Zrotation
				JOINT RightForeArm
				{
					OFFSET -10.79770 0.00000 0.00000
					CHANNELS 3 Yrotation Zrotation Xrotation
					JOINT RightHand
					{
						OFFSET -7.90744 0.00000 0.00000
						CHANNELS 3 Xrotation Yrotation Zrotation
						JOINT RightHandThumb1
						{
							OFFSET 0.00000 0.00000 0.00000
							CHANNELS 3 Xrotation Zrotation Yrotation
							End Site
							{
								OFFSET 0.00000 0.00000 3.93700
							}
						}
						End Site
						{
							OFFSET -3.93700 0.00000 0.00000
						}
					}
				}
			}
		}
	}
	JOINT LeftUpLeg
	{
		OFFSET 4.01300 0.00000 0.00000
		CHANNELS 3 Xrotation Yrotation Zrotation
		JOINT LeftLeg
		{
			OFFSET 0.00000 -16.89976 0.00000
			CHANNELS 3 Xrotation Yrotation Zrotation
			JOINT LeftFoot
			{
				OFFSET 0.00000 -17.38918 0.00000
				CHANNELS 3 Xrotation Yrotation Zrotation
				JOINT LeftToeBase
				{
					OFFSET 0.00000 -1.27456 4.75673
					CHANNELS 3 Xrotation Yrotation Zrotation
					End Site
					{
						OFFSET 0.00000 0.00000 2.95275
					}
				}
			}
		}
	}
	JOINT RightUpLeg
	{
		OFFSET -4.01300 0.00000 0.00000
		CHANNELS 3 Xrotation Yrotation Zrotation
		JOINT RightLeg
		{
			OFFSET 0.00000 -16.89976 0.00000
			CHANNELS 3 Xrotation Yrotation Zrotation
			JOINT RightFoot
			{
				OFFSET 0.00000 -17.38918 0.00000
				CHANNELS 3 Xrotation Yrotation Zrotation
				JOINT RightToeBase
				{
					OFFSET 0.00000 -1.27456 4.75673
					CHANNELS 3 Xrotation Yrotation Zrotation
					End Site
					{
						OFFSET 0.00000 0.00000 2.95275
					}
				}
			}
		}
	}
}
MOTION
Frames: 9
Frame Time: 0.008333
 20.0308 35.1206 -12.4008 107.5822 1.7741 -178.8643 70.1978 -7.7518 -4.2785 -13.2617 3.0061 0.3116 15.8170 23.5620 11.5927 57.5191 -15.2803 -88.0846 0.8079 0.0000 20.5497 0.7814 0.8817 -41.5513 33.1476 -0.0000 26.2537 49.1092 -29.3376 -3.9064 25.3482 20.5061 75.7582 7.6576 -0.0000 34.8529 -3.4337 2.9667 49.2197 32.8623 0.0000 -24.3270 -77.8141 -3.3587 6.5324 -5.0958 -0.0000 0.0000 -5.8350 34.2447 4.5042 27.0654 -0.0000 0.0000 -77.8475 4.9999 -3.7622 -4.6363 0.0000 0.0000 -3.2110 -22.5034 5.0392 26.5446 0.0000 -0.0000
 20.0279 35.1241 -12.4174 107.5813 1.7735 -178.8173 70.1780 -7.7560 -4.2858 -13.2942 3.0048 0.3274 15.7874 23.5379 11.5972 57.4805 -15.2622 -88.1121 0.7567 0.0000 20.3621 0.7990 0.9036 -41.4874 33.1476 -0.0000 26.2537 48.9451 -29.3053 -3.9613 25.3783 20.6011 75.8118 7.6864 -0.0000 34.8031 -3.4438 2.9693 49.2779 32.8623 0.0000 -24.3270 -77.7715 -3.4754 6.5260 -5.0776 -0.0000 0.0000 -5.8841 34.3658 4.5323 27.0186 0.0000 -0.0000 -77.8167 5.0191 -3.7740 -4.6602 -0.0000 -0.0000 -3.2836 -22.4617 4.8949 26.8676 -0.0000 0.0000
 20.0247 35.1265 -12.4324 107.5660 1.7834 -178.7652 70.1555 -7.7709 -4.3062 -13.3477 3.0313 0.3574 15.7499 23.5304 11.6009 57.4522 -15.2981 -88.1231 0.7299 0.0000 20.1477 0.7999 0.9062 -41.4384 33.1476 -0.0000 26.2537 48.8762 -29.2993 -3.9573 25.3551 20.8313 75.8299 7.7096 -0.0000 34.7308 -3.4492 2.9786 49.2347 32.8623 0.0000 -24.3270 -77.7577 -3.5214 6.5225 -5.0527 0.0000 -0.0000 -5.9403 34.4300 4.5955 26.9597 0.0000 -0.0000 -77.7992 5.0599 -3.7784 -4.6897 -0.0000 0.0000 -3.1991 -22.5147 5.0449 26.5721 -0.0000 0.0000
 20.0232 35.1286 -12.4478 107.5418 1.7965 -178.7207 70.1472 -7.7911 -4.3284 -13.4143 3.0509 0.3954 15.7008 23.5218 11.6029 57.4365 -15.4037 -88.1354 0.7242 0.0000 19.9017 0.7886 0.8939 -41.4207 33.1476 -0.0000 26.2537 48.8345 -29.2962 -3.9450 25.2999 21.0207 75.8448 7.7214 -0.0000 34.7009 -3.4812 3.0093 49.2070 32.8623 0.0000 -24.3270 -77.7591 -3.5090 6.5255 -5.0271 -0.0000 -0.0000 -5.9955 34.4254 4.6483 26.9922 -0.0000 -0.0000 -77.7895 5.0829 -3.7725 -4.7178 0.0000 0.0000 -3.2662 -22.4633 4.8969 26.9827 0.0000 -0.0000
 20.0197 35.1308 -12.4633 107.5023 1.7970 -178.6706 70.1406 -7.8126 -4.3405 -13.4802 3.0651 0.4238 15.6564 23.5095 11.6334 57.4012 -15.4829 -88.1542 0.7484 0.0000 19.7046 0.7739 0.8773 -41.4220 33.1476 -0.0000 26.2537 48.6677 -29.2737 -3.9963 25.3325 21.1428 75.8871 7.6922 -0.0000 34.7323 -3.4841 3.0123 49.2017 32.8623 0.0000 -24.3270 -77.7726 -3.4486 6.5057 -5.0289 -0.0000 0.0000 -6.0322 34.4161 4.6915 27.0096 0.0000 -0.0000 -77.7941 5.0903 -3.7829 -4.7531 0.0000 0.0000 -3.2085 -22.4707 5.0157 26.5798 0.0000 -0.0000
 20.0150 35.1316 -12.4783 107.4715 1.7872 -178.6105 70.1581 -7.8739 -4.3302 -13.5473 3.0973 0.4127 15.6123 23.5116 11.6624 57.3801 -15.4980 -88.1647 0.7722 0.0000 19.6244 0.7119 0.8059 -41.4567 33.1476 -0.0000 26.2537 48.6771 -29.2462 -3.9726 25.2073 21.1180 75.9357 7.6622 -0.0000 34.7419 -3.4561 2.9867 49.2145 32.8623 0.0000 -24.3270 -77.7730 -3.3583 6.4732 -5.0416 0.0000 0.0000 -6.0684 34.3795 4.7106 27.0022 0.0000 -0.0000 -77.7987 5.0863 -3.8067 -4.7715 -0.0000 0.0000 -3.2429 -22.4310 5.0047 26.5849 -0.0000 0.0000
 20.0104 35.1316 -12.4917 107.4342 1.7845 -178.5432 70.1721 -7.9243 -4.3373 -13.5954 3.1017 0.3917 15.6163 23.4984 11.6917 57.3518 -15.4485 -88.1723 0.7522 0.0000 19.5408 0.6945 0.7849 -41.5058 33.1476 -0.0000 26.2537 48.5816 -29.2272 -4.0170 25.1669 20.9793 76.0125 7.6427 -0.0000 34.9013 -3.4376 2.9687 49.2325 32.8623 0.0000 -24.3270 -77.7747 -3.2383 6.4431 -5.0746 0.0000 0.0000 -6.0890 34.3401 4.7421 26.9775 -0.0000 -0.0000 -77.8194 5.0867 -3.8293 -4.7759 -0.0000 0.0000 -3.3275 -22.3961 4.9041 26.8348 -0.0000 0.0000
 20.0076 35.1317 -12.5028 107.3811 1.7868 -178.5002 70.1795 -7.9474 -4.3333 -13.6199 3.0940 0.3777 15.6794 23.4976 11.7088 57.2824 -15.4030 -88.1708 0.7316 0.0000 19.4860 0.6945 0.7820 -41.6122 33.1476 -0.0000 26.2537 48.5402 -29.2372 -4.0522 25.0786 20.8186 76.0957 7.6111 -0.0000 35.1064 -3.4408 2.9693 49.2534 32.8623 0.0000 -24.3270 -77.7967 -3.1419 6.4270 -5.1048 0.0000 0.0000 -6.1043 34.2951 4.7694 26.9785 0.0000 0.0000 -77.8604 5.0705 -3.8361 -4.7742 -0.0000 0.0000 -3.3638 -22.3554 4.9312 26.8764 -0.0000 0.0000
 20.0061 35.1323 -12.5117 107.3100 1.7896 -178.4698 70.1805 -7.9751 -4.3139 -13.6317 3.1115 0.3470 15.6940 23.4968 11.7284 57.2955 -15.3604 -88.1591 0.6981 0.0000 19.3344 0.7203 0.8112 -41.6045 33.1476 -0.0000 26.2537 48.5296 -29.2552 -4.0896 24.9899 20.7418 76.1695 7.5687 -0.0000 35.2625 -3.4489 2.9751 49.2652 32.8623 0.0000 -24.3270 -77.8374 -3.0806 6.4214 -5.1334 -0.0000 -0.0000 -6.1223 34.2619 4.7741 27.0013 -0.0000 0.0000 -77.9184 5.0568 -3.8376 -4.7795 -0.0000 0.0000 -3.3174 -22.3358 5.0756 26.6136 0.0000 -0.0000
